# xmcd
#
# Track frame offsets: 
#        150
#        10475
#        19695
#        32745
#        44292
#        55620
#        67080
#        77880
#        88545
#        100145
#        110877
#        120187
#        130830
#        142300
#        151972
#        162445
#        176412
#        185022
#        195320
#        205790
#
# Disc length: 3134 seconds
#
# Revision: 3
# Processed by: cddbd v1.5.2PL0 Copyright (c) Steve Scherf et al.
# Submitted via: ExactAudioCopy v1.0b3
#
DISCID=100c3c14
DTITLE=Ferlin Husky - Vintage Collections (1951-67)
DYEAR=1996
DGENRE=Country
TTITLE0=Tennessee Central (Number 9) (As Terry Preston)
TTITLE1=Don't Believe A Word They Say (As Terry Preston)
TTITLE2=Gone (As Terry Preston)
TTITLE3=I Feel Better All Over
TTITLE4=Undesired (As Terry Preston)
TTITLE5=A Dear John Letter (With Jean Shepard)
TTITLE6=Gone
TTITLE7=Prize Possession
TTITLE8=I've Got The World On A String
TTITLE9=A Fallen Star
TTITLE10=My Reason For Living
TTITLE11=Stormy Weather
TTITLE12=Detour
TTITLE13=Draggin' The River
TTITLE14=Wings Of A Dove
TTITLE15=I'm So Lonesome I Could Cry
TTITLE16=(Open Up The Book) Take A Look
TTITLE17=Once
TTITLE18=Just For You
TTITLE19=Timber I'm Falling
EXTD=
EXTT0=as Terry Preston
EXTT1=previously unreleased
EXTT2=
EXTT3=
EXTT4=
EXTT5=
EXTT6=
EXTT7=
EXTT8=
EXTT9=
EXTT10=
EXTT11=
EXTT12=
EXTT13=
EXTT14=
EXTT15=
EXTT16=
EXTT17=
EXTT18=
EXTT19=
PLAYORDER=
